<svg width="435" height="196" viewBox="0 0 435 196" fill="none" xmlns="http://www.w3.org/2000/svg">
<path fill-rule="evenodd" clip-rule="evenodd" d="M311.989 0H401.601L434.302 48.9632H311.989C284.953 48.9632 263.025 70.8906 263.025 97.9411H263.143C263.143 152.028 219.303 195.868 165.201 195.868H91.6469H42.9178L91.6469 122.415V146.904H165.201C192.252 146.904 214.179 124.977 214.179 97.9411H214.062C214.062 43.84 257.902 0 311.989 0Z" fill="#51BFAE"/>
<path fill-rule="evenodd" clip-rule="evenodd" d="M91.6469 73.4522V48.9632H165.201C182.254 48.9632 197.258 57.6873 206.041 70.8906C210.447 53.5741 218.981 37.8971 230.559 25.0013C213.228 9.45598 190.32 0 165.201 0H91.6469H42.9178L91.6469 73.4522ZM246.646 170.866C263.977 186.412 286.885 195.868 311.989 195.868H401.601L434.302 146.904H311.989C294.95 146.904 279.932 138.195 271.164 124.977C266.758 142.293 258.21 157.97 246.646 170.866Z" fill="#808080"/>
<path d="M425.724 9.28032H424.729V12.8519H422.796V3.73262H425.651C426.866 3.73262 427.788 3.96683 428.403 4.40596C429.017 4.85973 429.325 5.5477 429.325 6.45524C429.325 7.05539 429.178 7.55307 428.886 7.93365C428.578 8.32887 428.124 8.6509 427.51 8.92902L429.866 12.8519H427.671L425.724 9.28032ZM424.729 7.90438H425.753C426.265 7.90438 426.661 7.78728 426.924 7.56771C427.188 7.33351 427.319 6.96756 427.319 6.45524C427.319 6.00147 427.173 5.65017 426.895 5.44524C426.631 5.22567 426.192 5.12321 425.607 5.12321H424.729V7.90438ZM426.002 0C428.285 0 430.364 0.936815 431.872 2.42986C433.365 3.93755 434.302 6.00147 434.302 8.2996C434.302 10.5831 433.365 12.647 431.872 14.1547C430.364 15.6624 428.285 16.5846 426.002 16.5846C423.719 16.5846 421.64 15.6624 420.147 14.1547C418.639 12.647 417.717 10.5831 417.717 8.2996C417.717 6.00147 418.639 3.93755 420.147 2.42986C421.64 0.936815 423.719 0 426.002 0ZM430.906 3.38132C429.661 2.13711 427.92 1.36131 426.002 1.36131C424.084 1.36131 422.357 2.13711 421.098 3.38132C419.84 4.64016 419.064 6.38205 419.064 8.2996C419.064 10.2025 419.84 11.9444 421.098 13.2032C422.357 14.4474 424.084 15.2232 426.002 15.2232C427.92 15.2232 429.661 14.4474 430.906 13.2032C432.164 11.9444 432.94 10.2025 432.94 8.2996C432.94 6.38205 432.164 4.64016 430.906 3.38132Z" fill="#808080"/>
<path d="M193.233 70.8467C193.233 63.773 187.498 58.0386 180.425 58.0386C173.351 58.0386 167.617 63.773 167.617 70.8467C167.617 77.9203 173.351 83.6547 180.425 83.6547C187.498 83.6547 193.233 77.9203 193.233 70.8467Z" fill="#51BFAE"/>
<path d="M200.478 89.2243C200.478 83.9574 196.209 79.6878 190.942 79.6878C185.675 79.6878 181.405 83.9574 181.405 89.2243C181.405 94.4911 185.675 98.7608 190.942 98.7608C196.209 98.7608 200.478 94.4911 200.478 89.2243Z" fill="#51BFAE"/>
<path d="M169.798 94.3256C169.798 88.7637 165.289 84.2548 159.727 84.2548C154.165 84.2548 149.656 88.7637 149.656 94.3256C149.656 99.8875 154.165 104.396 159.727 104.396C165.289 104.396 169.798 99.8875 169.798 94.3256Z" fill="#51BFAE"/>
<path d="M151.208 67.48C151.208 65.2002 149.36 63.3521 147.08 63.3521C144.8 63.3521 142.952 65.2002 142.952 67.48C142.952 69.7597 144.8 71.6078 147.08 71.6078C149.36 71.6078 151.208 69.7597 151.208 67.48Z" fill="#51BFAE"/>
<path d="M135.004 132.032C135.004 129.753 133.156 127.905 130.876 127.905C128.596 127.905 126.748 129.753 126.748 132.032C126.748 134.312 128.596 136.16 130.876 136.16C133.156 136.16 135.004 134.312 135.004 132.032Z" fill="#51BFAE"/>
<path d="M117.043 75.9113H117.029C112.76 75.9113 109.3 79.3716 109.3 83.64V83.6547C109.3 87.9231 112.76 91.3834 117.029 91.3834H117.043C121.312 91.3834 124.772 87.9231 124.772 83.6547V83.64C124.772 79.3716 121.312 75.9113 117.043 75.9113Z" fill="#51BFAE"/>
<path d="M106.241 105.055C106.241 102.209 103.934 99.9025 101.088 99.9025C98.2426 99.9025 95.9357 102.209 95.9357 105.055V105.07C95.9357 107.915 98.2426 110.222 101.088 110.222C103.934 110.222 106.241 107.915 106.241 105.07V105.055Z" fill="#51BFAE"/>
<path d="M93.2716 86.692C93.2716 83.3815 90.588 80.6978 87.2775 80.6978C83.967 80.6978 81.2833 83.3815 81.2833 86.692C81.2833 90.0024 83.967 92.6861 87.2775 92.6861C90.588 92.6861 93.2716 90.0024 93.2716 86.692Z" fill="#51BFAE"/>
<path d="M69.3389 102.545C69.3389 99.2422 66.6618 96.5651 63.3594 96.5651C60.057 96.5651 57.3799 99.2422 57.3799 102.545C57.3799 105.847 60.057 108.524 63.3594 108.524C66.6618 108.524 69.3389 105.847 69.3389 102.545Z" fill="#51BFAE"/>
<path d="M191.784 115.243C191.784 109.511 187.137 104.865 181.405 104.865C175.674 104.865 171.027 109.511 171.027 115.243C171.027 120.975 175.674 125.621 181.405 125.621C187.137 125.621 191.784 120.975 191.784 115.243Z" fill="#51BFAE"/>
<path d="M87.2116 118.039C87.2116 114.627 84.446 111.862 81.0345 111.862C77.623 111.862 74.8574 114.627 74.8574 118.039C74.8574 121.45 77.623 124.216 81.0345 124.216C84.446 124.216 87.2116 121.45 87.2116 118.039Z" fill="#51BFAE"/>
<path d="M41.4687 105.201C41.4687 103.221 39.8631 101.615 37.8825 101.615C35.9018 101.615 34.2962 103.221 34.2962 105.201C34.2962 107.182 35.9018 108.788 37.8825 108.788C39.8631 108.788 41.4687 107.182 41.4687 105.201Z" fill="#51BFAE"/>
<path d="M19.5121 96.975C19.5121 94.6953 17.664 92.8472 15.3843 92.8472C13.1045 92.8472 11.2564 94.6953 11.2564 96.975C11.2564 99.2548 13.1045 101.103 15.3843 101.103C17.664 101.103 19.5121 99.2548 19.5121 96.975Z" fill="#51BFAE"/>
<path d="M57.3799 82.3519C57.3799 79.5062 55.0731 77.1994 52.2274 77.1994C49.3818 77.1994 47.0749 79.5062 47.0749 82.3519V82.3665C47.0749 85.2122 49.3818 87.519 52.2274 87.519C55.0731 87.519 57.3799 85.2122 57.3799 82.3665V82.3519Z" fill="#51BFAE"/>
<path d="M7.17249 109.344C7.17249 107.363 5.56687 105.758 3.58625 105.758C1.60562 105.758 0 107.363 0 109.344C0 111.325 1.60562 112.93 3.58625 112.93C5.56687 112.93 7.17249 111.325 7.17249 109.344Z" fill="#51BFAE"/>
<path d="M5.4306 76.2626H5.41596C3.68594 76.2626 2.28349 77.665 2.28349 79.395V79.4097C2.28349 81.1397 3.68594 82.5422 5.41596 82.5422H5.4306C7.16062 82.5422 8.56307 81.1397 8.56307 79.4097V79.395C8.56307 77.665 7.16062 76.2626 5.4306 76.2626Z" fill="#51BFAE"/>
<path d="M137.58 106.241H137.565C133.297 106.241 129.837 109.701 129.837 113.969V113.984C129.837 118.252 133.297 121.713 137.565 121.713H137.58C141.849 121.713 145.309 118.252 145.309 113.984V113.969C145.309 109.701 141.849 106.241 137.58 106.241Z" fill="#51BFAE"/>
<path d="M116.78 123.923C116.78 119.299 113.031 115.55 108.407 115.55C103.783 115.55 100.034 119.299 100.034 123.923C100.034 128.547 103.783 132.296 108.407 132.296C113.031 132.296 116.78 128.547 116.78 123.923Z" fill="#51BFAE"/>
<path d="M137.287 81.7518H137.273C133.311 81.7518 130.1 84.963 130.1 88.9243V88.9389C130.1 92.9002 133.311 96.1114 137.273 96.1114H137.287C141.249 96.1114 144.46 92.9002 144.46 88.9389V88.9243C144.46 84.963 141.249 81.7518 137.287 81.7518Z" fill="#51BFAE"/>
<path d="M155.306 122.679H155.292C152.592 122.679 150.403 124.868 150.403 127.568V127.582C150.403 130.283 152.592 132.471 155.292 132.471H155.306C158.007 132.471 160.195 130.283 160.195 127.582V127.568C160.195 124.868 158.007 122.679 155.306 122.679Z" fill="#51BFAE"/>
<path d="M110.208 62.2543C110.208 59.9746 108.359 58.1265 106.08 58.1265C103.8 58.1265 101.952 59.9746 101.952 62.2543C101.952 64.534 103.8 66.3821 106.08 66.3821C108.359 66.3821 110.208 64.534 110.208 62.2543Z" fill="#51BFAE"/>
<path d="M69.9098 64.2523C69.9098 60.9499 67.2327 58.2728 63.9303 58.2728C60.6279 58.2728 57.9508 60.9499 57.9508 64.2523C57.9508 67.5547 60.6279 70.2319 63.9303 70.2319C67.2327 70.2319 69.9098 67.5547 69.9098 64.2523Z" fill="#51BFAE"/>
<path d="M64.245 140.508C64.245 137.096 61.4794 134.331 58.0679 134.331C54.6564 134.331 51.8908 137.096 51.8908 140.508C51.8908 143.919 54.6564 146.685 58.0679 146.685C61.4794 146.685 64.245 143.919 64.245 140.508Z" fill="#51BFAE"/>
<path d="M28.2801 119.093C28.2801 116.247 25.9733 113.94 23.1276 113.94C20.282 113.94 17.9751 116.247 17.9751 119.093V119.107C17.9751 121.953 20.282 124.26 23.1276 124.26C25.9733 124.26 28.2801 121.953 28.2801 119.107V119.093Z" fill="#51BFAE"/>
<path d="M33.6229 51.5394C33.6229 48.6938 31.316 46.387 28.4704 46.387C25.6248 46.387 23.3179 48.6938 23.3179 51.5394V51.5541C23.3179 54.3997 25.6248 56.7066 28.4704 56.7066C31.316 56.7066 33.6229 54.3997 33.6229 51.5541V51.5394Z" fill="#51BFAE"/>
<path d="M53.3399 120.439C53.3399 118.16 51.4918 116.311 49.2121 116.311C46.9323 116.311 45.0842 118.16 45.0842 120.439C45.0842 122.719 46.9323 124.567 49.2121 124.567C51.4918 124.567 53.3399 122.719 53.3399 120.439Z" fill="#51BFAE"/>
<path d="M52.0079 36.8285C52.0079 34.5488 50.1598 32.7007 47.88 32.7007C45.6003 32.7007 43.7522 34.5488 43.7522 36.8285C43.7522 39.1083 45.6003 40.9564 47.88 40.9564C50.1598 40.9564 52.0079 39.1083 52.0079 36.8285Z" fill="#51BFAE"/>
<path d="M31.1637 69.134H31.1491C29.4191 69.134 28.0166 70.5365 28.0166 72.2665V72.2811C28.0166 74.0112 29.4191 75.4136 31.1491 75.4136H31.1637C32.8937 75.4136 34.2962 74.0112 34.2962 72.2811V72.2665C34.2962 70.5365 32.8937 69.134 31.1637 69.134Z" fill="#51BFAE"/>
<path d="M36.5065 139.161C36.5065 137.18 34.9009 135.575 32.9203 135.575C30.9396 135.575 29.334 137.18 29.334 139.161C29.334 141.142 30.9396 142.747 32.9203 142.747C34.9009 142.747 36.5065 141.142 36.5065 139.161Z" fill="#51BFAE"/>
<path d="M40.7368 163.46H40.7222C38.9922 163.46 37.5897 164.862 37.5897 166.592V166.607C37.5897 168.337 38.9922 169.739 40.7222 169.739H40.7368C42.4668 169.739 43.8693 168.337 43.8693 166.607V166.592C43.8693 164.862 42.4668 163.46 40.7368 163.46Z" fill="#51BFAE"/>
<path d="M125.255 110.295C125.255 108.016 123.407 106.167 121.127 106.167C118.848 106.167 116.999 108.016 116.999 110.295C116.999 112.575 118.848 114.423 121.127 114.423C123.407 114.423 125.255 112.575 125.255 110.295Z" fill="#51BFAE"/>
<path d="M343.24 76.9359C343.24 67.9867 335.985 60.7319 327.036 60.7319C318.087 60.7319 310.832 67.9867 310.832 76.9359C310.832 85.8851 318.087 93.1399 327.036 93.1399C335.985 93.1399 343.24 85.8851 343.24 76.9359Z" fill="#51BFAE"/>
<path d="M351.628 93.3888C351.628 88.8939 347.984 85.2502 343.489 85.2502C338.994 85.2502 335.351 88.8939 335.351 93.3888C335.351 97.8836 338.994 101.527 343.489 101.527C347.984 101.527 351.628 97.8836 351.628 93.3888Z" fill="#51BFAE"/>
<path d="M378.298 72.8374C378.298 66.7904 373.396 61.8884 367.349 61.8884C361.302 61.8884 356.4 66.7904 356.4 72.8374C356.4 78.8844 361.302 83.7864 367.349 83.7864C373.396 83.7864 378.298 78.8844 378.298 72.8374Z" fill="#51BFAE"/>
<path d="M370.671 95.3209H370.657C368.054 95.3209 365.943 97.4312 365.943 100.034V100.049C365.943 102.652 368.054 104.762 370.657 104.762H370.671C373.274 104.762 375.385 102.652 375.385 100.049V100.034C375.385 97.4312 373.274 95.3209 370.671 95.3209Z" fill="#51BFAE"/>
<path d="M297.614 77.6385H297.6C293.065 77.6385 289.388 81.3151 289.388 85.8503V85.865C289.388 90.4002 293.065 94.0767 297.6 94.0767H297.614C302.15 94.0767 305.826 90.4002 305.826 85.865V85.8503C305.826 81.3151 302.15 77.6385 297.614 77.6385Z" fill="#51BFAE"/>
<path d="M324.167 106.402C324.167 103.338 321.683 100.854 318.62 100.854C315.556 100.854 313.072 103.338 313.072 106.402C313.072 109.466 315.556 111.949 318.62 111.949C321.683 111.949 324.167 109.466 324.167 106.402Z" fill="#51BFAE"/>
<path d="M287.09 103.825H287.075C284.472 103.825 282.362 105.936 282.362 108.539V108.553C282.362 111.157 284.472 113.267 287.075 113.267H287.09C289.693 113.267 291.803 111.157 291.803 108.553V108.539C291.803 105.936 289.693 103.825 287.09 103.825Z" fill="#51BFAE"/>
<path d="M347.939 112.125H347.924C345.054 112.125 342.728 114.452 342.728 117.321V117.336C342.728 120.206 345.054 122.532 347.924 122.532H347.939C350.809 122.532 353.135 120.206 353.135 117.336V117.321C353.135 114.452 350.809 112.125 347.939 112.125Z" fill="#51BFAE"/>
<path d="M400.152 121.069C400.152 112.831 393.474 106.153 385.236 106.153C376.998 106.153 370.32 112.831 370.32 121.069C370.32 129.306 376.998 135.985 385.236 135.985C393.474 135.985 400.152 129.306 400.152 121.069Z" fill="#51BFAE"/>
<path d="M402.669 86.5749C402.669 82.747 399.566 79.6439 395.738 79.6439C391.911 79.6439 388.808 82.747 388.808 86.5749C388.808 90.4028 391.911 93.5059 395.738 93.5059C399.566 93.5059 402.669 90.4028 402.669 86.5749Z" fill="#51BFAE"/>
<path d="M318.312 120.147H318.298C314.716 120.147 311.813 123.05 311.813 126.631V126.646C311.813 130.227 314.716 133.13 318.298 133.13H318.312C321.893 133.13 324.797 130.227 324.797 126.646V126.631C324.797 123.05 321.893 120.147 318.312 120.147Z" fill="#51BFAE"/>
<path d="M426.119 68.7973C426.119 64.5855 422.705 61.1711 418.493 61.1711C414.281 61.1711 410.867 64.5855 410.867 68.7973C410.867 73.0092 414.281 76.4236 418.493 76.4236C422.705 76.4236 426.119 73.0092 426.119 68.7973Z" fill="#51BFAE"/>
<path d="M432.589 125.972C432.589 124.056 431.036 122.503 429.12 122.503C427.204 122.503 425.651 124.056 425.651 125.972C425.651 127.888 427.204 129.442 429.12 129.442C431.036 129.442 432.589 127.888 432.589 125.972Z" fill="#51BFAE"/>
<path d="M350.691 133.833H350.676C349.148 133.833 347.91 135.071 347.91 136.599V136.614C347.91 138.142 349.148 139.381 350.676 139.381H350.691C352.219 139.381 353.457 138.142 353.457 136.614V136.599C353.457 135.071 352.219 133.833 350.691 133.833Z" fill="#51BFAE"/>
</svg>
